<svg width="22" height="27" viewBox="0 0 22 27" fill="none" xmlns="http://www.w3.org/2000/svg">
<path d="M9.89954 3.98873V25.8947C9.8987 26.0396 9.92654 26.1832 9.98144 26.3172C10.0363 26.4513 10.1172 26.5732 10.2195 26.6759C10.3217 26.7786 10.4432 26.8601 10.5771 26.9157C10.711 26.9714 10.8545 27 10.9995 27C11.1445 27 11.2881 26.9714 11.4219 26.9157C11.5558 26.8601 11.6773 26.7786 11.7796 26.6759C11.8818 26.5732 11.9627 26.4513 12.0176 26.3172C12.0725 26.1832 12.1003 26.0396 12.0995 25.8947V3.98873L20.1206 12.5032C20.2195 12.6111 20.3398 12.6973 20.4739 12.7563C20.608 12.8152 20.7529 12.8457 20.8993 12.8457C21.0458 12.8457 21.1907 12.8152 21.3248 12.7563C21.4589 12.6973 21.5792 12.6111 21.6781 12.5032C21.8851 12.2781 22 11.9836 22 11.6779C22 11.3722 21.8851 11.0777 21.6781 10.8526L11.7783 0.342506C11.6794 0.234571 11.559 0.148381 11.425 0.0894159C11.2909 0.0304506 11.146 0 10.9995 0C10.853 0 10.7081 0.0304506 10.5741 0.0894159C10.44 0.148381 10.3197 0.234571 10.2207 0.342506L0.320873 10.8526C0.114487 11.0776 5.31672e-07 11.3717 5.31672e-07 11.6768C5.31672e-07 11.982 0.114487 12.276 0.320873 12.501C0.419805 12.6089 0.540135 12.6951 0.674211 12.7541C0.808287 12.8131 0.953175 12.8435 1.09967 12.8435C1.24616 12.8435 1.39105 12.8131 1.52513 12.7541C1.6592 12.6951 1.77953 12.6089 1.87846 12.501L9.89954 3.99096V3.98873Z" fill="#F8F8F8"/>
</svg>
